<?xml version="1.0" encoding="utf-8"?>
<!-- Generator: Adobe Illustrator 23.0.5, SVG Export Plug-In . SVG Version: 6.00 Build 0)  -->
<svg version="1.1" id="Warstwa_1" xmlns="http://www.w3.org/2000/svg" xmlns:xlink="http://www.w3.org/1999/xlink" x="0px" y="0px"
	 viewBox="0 0 553 65" style="enable-background:new 0 0 553 65;" xml:space="preserve">
<style type="text/css">
	.st0{fill:#1E1E1E;}
	.st1{fill:#FFFFFF;}
	.st2{fill:#892CDC;}
</style>
<g>
	<g>
		<path class="st1" d="M338.9,37.2L326,11.8c-2.8-5.6-8.2-9.1-14-9.7C311.3,2,310.6,2,309.9,2h-6.6c-0.7,0-1.3,0.3-1.8,0.7
			c-0.5,0.5-0.7,1.1-0.7,1.8c0,1.1-0.9,1.9-1.9,1.9H288h-8.4c-0.5,0-1-0.2-1.4-0.6s-0.6-0.8-0.6-1.4c0-1.4-1.1-2.5-2.5-2.5H267
			c-0.4,0-0.7,0-1.1,0c-6.5,0-12.7,3.6-15.9,9.8l-12.8,25.4c-4.4,8.8-0.9,19.5,7.9,23.9c2.6,1.3,5.3,1.9,8,1.9
			c6.5,0,12.8-3.6,15.9-9.8l4.1-8.1c2.1-4.2,6.4-6.8,11-6.8h3.9h4c4.7,0,8.9,2.6,11,6.8l4.1,8.1c4.4,8.8,15.1,12.3,23.9,7.8
			c6.2-3.1,9.8-9.4,9.8-15.9C340.8,42.5,340.2,39.8,338.9,37.2z M275.8,26.8c0,1.6-1.3,2.9-2.9,2.9h-4.2v4.2c0,1.6-1.3,2.9-2.9,2.9
			h-1.6c-1.6,0-2.9-1.3-2.9-2.9v-4.2H257c-1.6,0-2.9-1.3-2.9-2.9v-1.6c0-1.6,1.3-2.9,2.9-2.9h4.2V18c0-1.6,1.3-2.9,2.9-2.9h1.6
			c1.6,0,2.9,1.3,2.9,2.9v4.2h4.2c1.6,0,2.9,1.3,2.9,2.9V26.8z M311.5,15.1c2.1,0,3.7,1.7,3.7,3.7c0,2.1-1.7,3.7-3.7,3.7
			c-2.1,0-3.7-1.7-3.7-3.7C307.8,16.8,309.5,15.1,311.5,15.1z M304.2,29.7c-2.1,0-3.7-1.7-3.7-3.7c0-2.1,1.7-3.7,3.7-3.7
			s3.7,1.7,3.7,3.7C308,28,306.3,29.7,304.2,29.7z M311.5,36.8c-2.1,0-3.7-1.7-3.7-3.7c0-2.1,1.7-3.7,3.7-3.7c2.1,0,3.7,1.7,3.7,3.7
			C315.3,35.1,313.6,36.8,311.5,36.8z M318.7,29.7c-2.1,0-3.7-1.7-3.7-3.7c0-2.1,1.7-3.7,3.7-3.7c2.1,0,3.7,1.7,3.7,3.7
			C322.4,28,320.7,29.7,318.7,29.7z"/>
	</g>
	<path class="st2" d="M48,7c0,0.9,0,1.7-0.1,2.3c-0.1,0.6-0.2,1.2-0.4,1.5c-0.2,0.4-0.4,0.7-0.6,0.9S46.4,12,46.1,12H31v48.9
		c0,0.3-0.1,0.6-0.3,0.8c-0.2,0.3-0.5,0.5-1,0.6c-0.5,0.2-1.1,0.3-1.9,0.4s-1.8,0.1-3,0.1c-1.2,0-2.2,0-3-0.1s-1.4-0.2-1.9-0.4
		c-0.5-0.2-0.8-0.4-1-0.6c-0.2-0.3-0.3-0.5-0.3-0.8V12H3.4c-0.3,0-0.6-0.1-0.8-0.3c-0.2-0.2-0.4-0.5-0.6-0.9
		C1.9,10.5,1.8,10,1.7,9.3C1.6,8.7,1.6,7.9,1.6,7c0-0.9,0-1.7,0.1-2.4C1.8,4,1.9,3.4,2,3.1c0.2-0.4,0.3-0.7,0.6-0.8
		C2.8,2,3.1,2,3.4,2h42.8c0.3,0,0.5,0.1,0.8,0.3c0.2,0.2,0.4,0.5,0.6,0.8c0.2,0.4,0.3,0.9,0.4,1.6C47.9,5.3,48,6.1,48,7z"/>
	<path class="st2" d="M91.1,57.8c0,0.9,0,1.7-0.1,2.3s-0.2,1.1-0.4,1.5s-0.4,0.6-0.6,0.8c-0.2,0.2-0.5,0.3-0.8,0.3H58.8
		c-1,0-1.9-0.3-2.6-0.9s-1.1-1.6-1.1-3V5.8c0-1.4,0.4-2.4,1.1-3S57.8,2,58.8,2h30.3c0.3,0,0.5,0.1,0.8,0.2C90,2.3,90.2,2.6,90.4,3
		c0.2,0.4,0.3,0.9,0.4,1.5s0.1,1.4,0.1,2.3c0,0.9,0,1.6-0.1,2.2s-0.2,1.1-0.4,1.5s-0.3,0.6-0.6,0.8c-0.2,0.2-0.5,0.3-0.8,0.3H67.4
		v14.8h18.3c0.3,0,0.5,0.1,0.8,0.3c0.2,0.2,0.4,0.4,0.6,0.8c0.2,0.4,0.3,0.8,0.4,1.5s0.1,1.4,0.1,2.2c0,0.9,0,1.7-0.1,2.3
		c-0.1,0.6-0.2,1.1-0.4,1.4c-0.2,0.4-0.4,0.6-0.6,0.8c-0.2,0.2-0.5,0.2-0.8,0.2H67.4V53h21.8c0.3,0,0.5,0.1,0.8,0.3
		c0.2,0.2,0.4,0.4,0.6,0.8s0.3,0.9,0.4,1.5S91.1,56.9,91.1,57.8z"/>
	<path class="st2" d="M150.5,58c0.4,1.1,0.6,2,0.7,2.7s0,1.1-0.4,1.5s-1,0.5-1.8,0.6c-0.9,0.1-2.1,0.1-3.6,0.1c-1.6,0-2.8,0-3.7-0.1
		s-1.6-0.1-2-0.3s-0.8-0.3-1-0.6c-0.2-0.3-0.3-0.6-0.5-1l-4.1-12.2h-22.8l-3.8,11.9c-0.1,0.4-0.3,0.8-0.5,1.1
		c-0.2,0.3-0.5,0.5-1,0.7s-1.1,0.3-1.9,0.4c-0.8,0.1-1.9,0.1-3.3,0.1c-1.4,0-2.6,0-3.4-0.1s-1.4-0.3-1.7-0.7
		c-0.3-0.4-0.4-0.9-0.3-1.5s0.3-1.5,0.7-2.6l18.7-53.8c0.2-0.5,0.4-1,0.7-1.3s0.6-0.6,1.2-0.8c0.5-0.2,1.3-0.3,2.3-0.3
		s2.3-0.1,3.8-0.1c1.8,0,3.3,0,4.4,0.1s1.9,0.2,2.6,0.3c0.6,0.2,1,0.4,1.3,0.8c0.3,0.3,0.5,0.8,0.7,1.4L150.5,58z M122.6,13.5
		L122.6,13.5L114,39.3h17.2L122.6,13.5z"/>
	<path class="st2" d="M229.7,60.9c0,0.3-0.1,0.6-0.3,0.8c-0.2,0.3-0.5,0.5-0.9,0.6c-0.5,0.2-1.1,0.3-1.8,0.4s-1.7,0.1-2.9,0.1
		c-1.1,0-2.1,0-2.8-0.1s-1.3-0.2-1.8-0.4c-0.4-0.2-0.8-0.4-0.9-0.6c-0.2-0.3-0.3-0.5-0.3-0.8V11.6h-0.1l-17.6,49.3
		c-0.1,0.4-0.3,0.7-0.6,1c-0.3,0.3-0.7,0.5-1.1,0.6s-1.1,0.3-1.9,0.3s-1.7,0.1-2.7,0.1s-2,0-2.7-0.1c-0.8-0.1-1.4-0.2-1.9-0.4
		c-0.5-0.2-0.9-0.4-1.1-0.6c-0.3-0.3-0.5-0.5-0.6-0.9l-17-49.3h-0.1v49.4c0,0.3-0.1,0.6-0.3,0.8c-0.2,0.3-0.5,0.5-1,0.6
		c-0.5,0.2-1.1,0.3-1.8,0.4s-1.7,0.1-2.8,0.1c-1.1,0-2.1,0-2.8-0.1s-1.4-0.2-1.8-0.4c-0.5-0.2-0.8-0.4-0.9-0.6
		c-0.2-0.3-0.3-0.5-0.3-0.8v-54c0-1.6,0.4-2.8,1.3-3.7s2-1.3,3.4-1.3h8.1c1.4,0,2.7,0.1,3.7,0.4s1.9,0.6,2.7,1.2
		c0.8,0.5,1.4,1.3,1.9,2.2s0.9,2,1.3,3.3l13.1,36.1h0.2l13.6-36c0.4-1.3,0.9-2.4,1.3-3.3c0.5-0.9,1-1.6,1.7-2.2s1.4-1,2.3-1.2
		s1.9-0.4,3-0.4h8.3c0.8,0,1.6,0.1,2.2,0.3c0.6,0.2,1.1,0.5,1.5,1s0.7,0.9,0.9,1.5s0.3,1.3,0.3,2.1V60.9z"/>
	<path class="st1" d="M398.5,58c0.4,1.1,0.6,2,0.7,2.7s0,1.1-0.4,1.5s-1,0.5-1.8,0.6c-0.9,0.1-2.1,0.1-3.6,0.1c-1.6,0-2.8,0-3.7-0.1
		s-1.6-0.1-2-0.3s-0.8-0.3-1-0.6c-0.2-0.3-0.3-0.6-0.5-1l-4.1-12.2h-22.8l-3.8,11.9c-0.1,0.4-0.3,0.8-0.5,1.1
		c-0.2,0.3-0.5,0.5-1,0.7s-1.1,0.3-1.9,0.4c-0.8,0.1-1.9,0.1-3.3,0.1c-1.4,0-2.6,0-3.4-0.1s-1.4-0.3-1.7-0.7
		c-0.3-0.4-0.4-0.9-0.3-1.5s0.3-1.5,0.7-2.6l18.7-53.8c0.2-0.5,0.4-1,0.7-1.3s0.6-0.6,1.2-0.8c0.5-0.2,1.3-0.3,2.3-0.3
		s2.3-0.1,3.8-0.1c1.8,0,3.3,0,4.4,0.1s1.9,0.2,2.6,0.3c0.6,0.2,1,0.4,1.3,0.8c0.3,0.3,0.5,0.8,0.7,1.4L398.5,58z M370.6,13.5
		L370.6,13.5L362,39.3h17.2L370.6,13.5z"/>
	<path class="st1" d="M451.3,60.8c0,0.3-0.1,0.6-0.3,0.9c-0.2,0.3-0.5,0.5-1,0.7c-0.5,0.2-1.1,0.3-2,0.4s-1.9,0.1-3.2,0.1
		c-2,0-3.5-0.1-4.4-0.2s-1.5-0.4-1.9-0.7c-0.4-0.3-0.7-0.7-0.9-1.1L419.3,32v28.8c0,0.3-0.1,0.6-0.3,0.9c-0.2,0.3-0.5,0.5-1,0.6
		c-0.5,0.2-1.1,0.3-1.9,0.4s-1.8,0.1-3,0.1c-1.2,0-2.2,0-3-0.1s-1.4-0.2-1.9-0.4c-0.5-0.2-0.8-0.4-1-0.6c-0.2-0.3-0.3-0.5-0.3-0.9
		V3.7c0-0.3,0.1-0.6,0.3-0.9c0.2-0.3,0.5-0.5,1-0.6c0.5-0.2,1.1-0.3,1.9-0.4s1.8-0.1,3-0.1c1.2,0,2.2,0,3,0.1s1.4,0.2,1.9,0.4
		c0.5,0.2,0.8,0.4,1,0.6c0.2,0.3,0.3,0.5,0.3,0.9v25.8L437,3.7c0.2-0.4,0.5-0.7,0.8-1c0.3-0.3,0.7-0.5,1.2-0.6
		c0.5-0.2,1.1-0.3,1.9-0.3c0.8-0.1,1.8-0.1,3-0.1c1.3,0,2.3,0,3.1,0.1s1.5,0.2,1.9,0.4c0.5,0.2,0.8,0.4,1,0.6
		c0.2,0.3,0.3,0.5,0.3,0.8c0,0.5-0.1,1.1-0.4,1.6s-0.8,1.5-1.6,2.7l-16.6,21.8l18.1,27.4c0.7,1.3,1.1,2.1,1.2,2.6
		S451.3,60.5,451.3,60.8z"/>
	<path class="st1" d="M495.4,57.8c0,0.9,0,1.7-0.1,2.3s-0.2,1.1-0.4,1.5s-0.4,0.6-0.6,0.8c-0.2,0.2-0.5,0.3-0.8,0.3h-30.5
		c-1,0-1.9-0.3-2.6-0.9s-1.1-1.6-1.1-3V5.8c0-1.4,0.4-2.4,1.1-3s1.6-0.9,2.6-0.9h30.3c0.3,0,0.5,0.1,0.8,0.2
		c0.2,0.2,0.4,0.4,0.6,0.8c0.2,0.4,0.3,0.9,0.4,1.5s0.1,1.4,0.1,2.3c0,0.9,0,1.6-0.1,2.2s-0.2,1.1-0.4,1.5s-0.3,0.6-0.6,0.8
		c-0.2,0.2-0.5,0.3-0.8,0.3h-21.7v14.8h18.3c0.3,0,0.5,0.1,0.8,0.3c0.2,0.2,0.4,0.4,0.6,0.8c0.2,0.4,0.3,0.8,0.4,1.5
		s0.1,1.4,0.1,2.2c0,0.9,0,1.7-0.1,2.3c-0.1,0.6-0.2,1.1-0.4,1.4c-0.2,0.4-0.4,0.6-0.6,0.8c-0.2,0.2-0.5,0.2-0.8,0.2h-18.3V53h21.8
		c0.3,0,0.5,0.1,0.8,0.3c0.2,0.2,0.4,0.4,0.6,0.8s0.3,0.9,0.4,1.5S495.4,56.9,495.4,57.8z"/>
	<path class="st1" d="M551.3,61c0,0.3-0.1,0.6-0.2,0.9s-0.4,0.4-0.9,0.6s-1.2,0.3-2.1,0.3c-0.9,0.1-2.1,0.1-3.7,0.1
		c-1.3,0-2.4,0-3.1-0.1c-0.8-0.1-1.4-0.2-1.9-0.4s-0.8-0.4-1-0.7c-0.2-0.3-0.3-0.6-0.5-1l-5.4-13.5c-0.7-1.5-1.3-2.9-1.9-4.1
		c-0.6-1.2-1.3-2.2-2.1-3s-1.6-1.4-2.6-1.8c-1-0.4-2.2-0.6-3.5-0.6h-3.8v23.1c0,0.3-0.1,0.6-0.3,0.8c-0.2,0.3-0.5,0.5-1,0.6
		c-0.5,0.2-1.1,0.3-1.9,0.4s-1.8,0.1-3,0.1c-1.2,0-2.2,0-3-0.1s-1.4-0.2-1.9-0.4c-0.5-0.2-0.8-0.4-1-0.6c-0.2-0.3-0.3-0.5-0.3-0.8
		V5.8c0-1.4,0.4-2.4,1.1-3s1.6-0.9,2.6-0.9h15.7c1.6,0,2.9,0,3.9,0.1c1,0.1,2,0.1,2.8,0.2c2.4,0.3,4.6,0.9,6.6,1.8s3.6,1.9,5,3.3
		s2.4,3,3.1,4.8c0.7,1.9,1.1,4,1.1,6.4c0,2-0.3,3.9-0.8,5.6c-0.5,1.7-1.3,3.2-2.3,4.5s-2.2,2.5-3.7,3.4c-1.5,1-3.1,1.8-5,2.3
		c0.9,0.4,1.8,1,2.6,1.6c0.8,0.6,1.5,1.4,2.3,2.3s1.4,1.9,2,3c0.6,1.1,1.2,2.4,1.8,3.9l5.1,12c0.5,1.2,0.8,2.1,0.9,2.6
		C551.2,60.3,551.3,60.7,551.3,61z M535.4,19.9c0-2-0.5-3.7-1.4-5.1c-0.9-1.4-2.4-2.3-4.5-2.9c-0.6-0.2-1.3-0.3-2.1-0.4
		s-1.9-0.1-3.3-0.1h-5.5v17.2h6.3c1.8,0,3.3-0.2,4.6-0.6s2.4-1,3.3-1.8c0.9-0.8,1.5-1.7,2-2.7C535.2,22.4,535.4,21.2,535.4,19.9z"/>
</g>
</svg>
